<?xml version="1.0" encoding="UTF-8" standalone="no"?>
<!-- Uploaded to: SVG Repo, www.svgrepo.com, Generator: SVG Repo Mixer Tools -->

<svg
   fill="#000000"
   width="800"
   height="800"
   viewBox="-7.5 0 32 32"
   version="1.1"
   id="svg253"
   sodipodi:docname="floating.svg"
   xmlns:inkscape="http://www.inkscape.org/namespaces/inkscape"
   xmlns:sodipodi="http://sodipodi.sourceforge.net/DTD/sodipodi-0.dtd"
   xmlns="http://www.w3.org/2000/svg"
   xmlns:svg="http://www.w3.org/2000/svg">
  <defs
     id="defs257" />
  <sodipodi:namedview
     id="namedview255"
     pagecolor="#ffffff"
     bordercolor="#000000"
     borderopacity="0.25"
     inkscape:showpageshadow="2"
     inkscape:pageopacity="0.0"
     inkscape:pagecheckerboard="0"
     inkscape:deskcolor="#d1d1d1"
     showgrid="false" />
  <title
     id="title249">float</title>
  <path
     d="M 18.04976,25.209376 C 20.397248,22.861888 21.841856,19.551328 21.841856,16 c 0,-3.61152 -1.444608,-6.861888 -3.792096,-9.209376 L 17.929376,6.67024 C 15.581888,4.322752 12.271328,2.878144 8.72,2.878144 c -3.61152,0 -6.861888,1.444608 -9.209376,3.792096 L -0.60976,6.790624 C -2.957248,9.138112 -4.401856,12.38848 -4.401856,16 c 0,3.61152 1.444608,6.861888 3.792096,9.209376 l 0.120384,0.120384 c 2.347488,2.347488 5.658048,3.792096 9.209376,3.792096 3.61152,0 6.861888,-1.444608 9.209376,-3.792096 l 0.120384,-0.120384 c 0,0.06019 0,0 0,0 z M 17.026496,22.560928 14.979968,20.5144 c 0.90288,-1.264032 1.444608,-2.829024 1.444608,-4.454208 0,-1.685376 -0.541728,-3.190176 -1.444608,-4.454208 l 2.046528,-2.046528 c 1.444608,1.80576 2.287296,4.093056 2.287296,6.560928 0,2.347488 -0.842688,4.634784 -2.287296,6.440544 z M 3.543488,16 c 0,-2.889216 2.347488,-5.176512 5.176512,-5.176512 2.889216,0 5.176512,2.347488 5.176512,5.176512 0,2.829024 -2.347488,5.176512 -5.176512,5.176512 C 5.830784,21.176512 3.543488,18.889216 3.543488,16 Z M 15.280928,7.693504 13.2344,9.740032 C 11.970368,8.837152 10.405376,8.295424 8.780192,8.295424 c -1.685376,0 -3.190176,0.541728 -4.454208,1.444608 L 2.279456,7.693504 c 1.80576,-1.444608 4.093056,-2.287296 6.560928,-2.287296 2.347488,0 4.634784,0.842688 6.440544,2.287296 z M 0.413504,9.439072 2.460032,11.4856 C 1.557152,12.809824 1.015424,14.314624 1.015424,16 c 0,1.685376 0.541728,3.190176 1.444608,4.454208 l -2.046528,2.10672 C -1.031104,20.755168 -1.873792,18.467872 -1.873792,16 c 0,-2.467872 0.842688,-4.755168 2.287296,-6.560928 z M 2.159072,24.306496 4.2056,22.259968 c 1.264032,0.90288 2.829024,1.444608 4.454208,1.444608 1.685376,0 3.190176,-0.541728 4.454208,-1.444608 l 2.046528,2.046528 c -1.80576,1.444608 -4.093056,2.287296 -6.560928,2.287296 -2.347488,0 -4.634784,-0.842688 -6.440544,-2.287296 z"
     id="path251"
     style="stroke-width:1.5048" />
</svg>
